# xmcd CD database file generated by Grip 3.2.0
# 
# Track frame offsets:
#       150
#       17509
#       32023
#       53518
#       73421
#       92589
#       110111
#       136796
#       161977
#       179236
#       200161
#       221902
# 
# Disc length: 3274 seconds
# 
# Revision: 1
# Processed by: cddbd v1.5.1PL0 Copyright (c) Steve Scherf et al.
# Submitted via: Grip 3.2.0
# 
DISCID=b90cc80c
DTITLE=Abi Wallenstein - Blues Avenue
DYEAR=1996
DGENRE=Blues
TTITLE0=Alright Now
TTITLE1=New York City
TTITLE2=Decoration Blues
TTITLE3=True Love Of My Life
TTITLE4=Keep Your Hands Off Her
TTITLE5=I'd Rather Go Blind
TTITLE6=Blue Bird
TTITLE7=Right Kind Of Life
TTITLE8=Same Old Blues
TTITLE9=Susi Q
TTITLE10=Blue Avenue
TTITLE11=She's Alright
EXTD=
EXTT0=
EXTT1=
EXTT2=
EXTT3=
EXTT4=
EXTT5=
EXTT6=
EXTT7=
EXTT8=
EXTT9=
EXTT10=
EXTT11=
PLAYORDER=
